<?xml version="1.0" standalone="no"?><!DOCTYPE svg PUBLIC "-//W3C//DTD SVG 1.1//EN" "http://www.w3.org/Graphics/SVG/1.1/DTD/svg11.dtd"><svg t="1592966725407" class="icon" viewBox="0 0 1024 1024" version="1.1" xmlns="http://www.w3.org/2000/svg" p-id="1694" xmlns:xlink="http://www.w3.org/1999/xlink" width="200" height="200"><defs><style type="text/css"></style></defs><path d="M914.38123648 306.7230729c-35.09418191-62.97723056-84.61063037-116.33961676-144.22266541-153.35676754-6.24964883-3.84593774-11.53781323-6.24964883-18.26820428-6.24964884-16.82597763 0-30.28675973 14.42226654-30.28675973 32.20972861 0 12.01855545 6.24964883 22.59488424 17.30671984 28.84453309 104.80180353 64.90019943 170.18274517 185.56649615 170.18274518 314.40541058 0 128.83891443-65.38094165 249.02446893-170.18274518 313.92466836-8.65335992 5.2881644-17.78746206 15.38375098-17.78746206 29.3252753 0 17.78746206 13.4607821 32.20972861 30.28675973 32.20972861 7.21113327 0 12.49929767-2.88445331 17.78746207-6.24964884 59.61203503-37.01715079 110.08996792-89.89879477 145.18414984-153.35676754 36.05566636-65.38094165 55.28535507-139.89598544 55.28535507-215.85325589 0-76.43801266-19.22968872-150.95305646-55.28535507-215.8532559z m-110.57071015 215.37251367c0-44.70902628-11.05707102-88.93731033-32.69047081-127.39668777-20.67191538-37.49789301-49.99719067-68.26539496-85.57211482-90.37953698-0.96148443-0.48074222-10.09558657-5.76890661-16.82597763-5.76890662-16.82597763 0-30.76750195 14.42226654-30.76750195 32.20972861 0 11.53781323 5.76890661 22.59488424 15.38375098 28.36379086 54.80461285 33.17121304 88.93731033 95.18695917 88.93731033 162.49086969 0 68.26539496-35.09418191 131.24262552-91.82176364 164.41383856-9.13410214 5.76890661-14.42226654 16.34523541-14.42226655 27.88304865 0 17.78746206 13.94152432 32.20972861 30.76750196 32.20972861 7.21113327 0 15.38375098-4.32667996 15.38375097-4.32667996 74.99578601-44.22828406 121.62778116-128.35817221 121.62778116-219.69919365zM550.45937744 75.00532382c-4.80742218-2.40371109-10.5763288-3.84593774-15.8644932-3.84593774-8.17261771 0-16.34523541 2.88445331-23.07562646 8.65335992-5.2881644 4.32667996-52.88164399 44.70902628-104.80180353 85.09137259-93.74473251 73.55355935-122.58926559 86.53359925-127.87742998 88.93731034H95.6772392c-16.82597763 0-30.28675973 14.42226654-30.28675974 32.2097286v473.05034253c0 17.78746206 13.4607821 32.20972861 30.28675974 32.2097286H300.47342408c5.2881644 2.40371109 32.20972861 15.8644932 115.37813232 87.9758259 28.36379087 24.51785312 61.05426169 54.32387064 92.30250586 83.16840372l1.44222665 1.44222665c6.73039106 6.24964883 15.38375098 9.61484436 24.0371109 9.61484437 5.2881644 0 10.09558657-0.96148443 14.90300876-3.36519553 13.4607821-6.24964883 22.59488424-20.67191538 22.59488425-35.09418191 0-1.44222665 0.48074222-157.68344751 0.48074221-161.04864304 0-3.36519553-1.44222665-657.65535424-1.44222665-664.3857453 0.96148443-14.90300876-7.21113327-28.36379087-19.71043094-34.6134397z m-39.42086187 693.7110206l-0.48074222 70.66910605c0 12.49929767-14.90300876 19.22968872-24.51785312 11.05707101-7.21113327-6.24964883-13.94152432-12.01855545-20.67191538-17.78746206-113.93590567-98.07141247-142.29969654-106.24403018-162.01012747-106.24403018h-0.96148444-154.7989942c-17.78746206 0-21.63339981-4.32667996-21.63339981-24.03711091V338.93280152c0-13.94152432 1.44222665-20.67191538 14.90300876-20.67191538h138.45375879c18.7489465 0 48.0742218-8.17261771 172.58645627-104.80180353 12.49929767-9.61484436 24.99859534-19.71043094 37.97863522-29.80601752 8.17261771-6.73039106 20.19117316-0.96148443 20.19117316 9.61484436 0.48074222 124.51223447 0.96148443 573.52546609 0.96148444 575.44843497z" fill="#707070" p-id="1695"></path></svg>